<?xml version="1.0" encoding="UTF-8"?> <svg xmlns="http://www.w3.org/2000/svg" xmlns:xlink="http://www.w3.org/1999/xlink" id="Layer_1" data-name="Layer 1" width="121" height="13.82" viewBox="0 0 121 13.82"><defs><style>.cls-1{fill:none;}.cls-2{clip-path:url(#clip-path);}.cls-3{fill:#4c4c4c;}.cls-4{fill:#007aca;}</style><clipPath id="clip-path" transform="translate(0 -2.61)"><rect class="cls-1" y="2.61" width="121" height="13.82"></rect></clipPath></defs><g class="cls-2"><path class="cls-3" d="M117,3.62l-1.71.3v8.55a7.6,7.6,0,0,0,.16,1.68,2.89,2.89,0,0,0,.54,1.23,2.33,2.33,0,0,0,1,.74,4.39,4.39,0,0,0,1.61.25,5.11,5.11,0,0,0,1.48-.19,7.29,7.29,0,0,0,.9-.32l-.33-1.42-.66.25a3.77,3.77,0,0,1-1.24.17,2.55,2.55,0,0,1-.77-.11,1.2,1.2,0,0,1-.56-.38,1.91,1.91,0,0,1-.33-.73,5.6,5.6,0,0,1-.11-1.19V8h3.63V6.59H117Zm-4.63.94a1.07,1.07,0,0,0,.32-.82,1,1,0,0,0-.32-.82,1.07,1.07,0,0,0-.78-.31,1.09,1.09,0,0,0-.79.31,1.08,1.08,0,0,0-.32.82,1.11,1.11,0,0,0,.32.82,1.13,1.13,0,0,0,.79.3,1.1,1.1,0,0,0,.78-.3m.08,2h-1.71v9.58h1.71Zm-7.31,0a11.6,11.6,0,0,0-1.51.42v9.17h1.71V8.12L106,8a4.32,4.32,0,0,1,1-.1,5.82,5.82,0,0,1,1.21.1,6.26,6.26,0,0,1,.67.18l.29-1.5-.34-.08-.5-.09a5.54,5.54,0,0,0-.57-.07l-.5,0a9.66,9.66,0,0,0-2,.19M94.62,10.46a4.81,4.81,0,0,1,.23-1,2.86,2.86,0,0,1,.49-.85A2.4,2.4,0,0,1,96.11,8a2.16,2.16,0,0,1,1-.23,2,2,0,0,1,1.65.74,2.94,2.94,0,0,1,.58,1.91ZM93.08,13.4A4.47,4.47,0,0,0,94,15a4,4,0,0,0,1.5,1,5.69,5.69,0,0,0,2.17.38,7.9,7.9,0,0,0,1.77-.18,5.72,5.72,0,0,0,1.1-.35l-.24-1.44a5.09,5.09,0,0,1-.93.3,6,6,0,0,1-1.52.16,3.21,3.21,0,0,1-2.36-.77,3.51,3.51,0,0,1-.86-2.27h6.55a1.67,1.67,0,0,0,0-.32v-.29a5.52,5.52,0,0,0-1-3.67,3.68,3.68,0,0,0-3-1.21,4.57,4.57,0,0,0-1.62.31,4.21,4.21,0,0,0-1.4.94,4.69,4.69,0,0,0-1,1.58,6,6,0,0,0-.37,2.22,6.72,6.72,0,0,0,.28,2m-8.51,1c.12-.29.28-.67.48-1.12s.42-.95.66-1.48.48-1.07.74-1.63.52-1.08.75-1.58.45-.94.65-1.34.37-.69.49-.9q.21,2.18.33,4.71c.09,1.69.16,3.39.22,5.11h1.75c-.2-4.4-.52-8.65-.93-12.77H88.14c-.33.54-.69,1.18-1.07,1.92s-.76,1.51-1.14,2.31S85.18,9.24,84.82,10s-.68,1.54-1,2.21l-1-2.21c-.36-.8-.72-1.6-1.1-2.41S81,6.06,80.62,5.32s-.73-1.38-1.06-1.92H78c-.11.92-.21,1.9-.3,2.93s-.18,2.09-.26,3.18-.15,2.19-.21,3.32-.12,2.23-.17,3.34H78.8c.06-1.72.14-3.42.22-5.11s.2-3.26.33-4.71c.13.21.29.51.49.9s.42.84.65,1.34.49,1,.75,1.58L82,11.8l.65,1.48c.2.45.37.83.49,1.12Z" transform="translate(0 -2.61)"></path><path class="cls-4" d="M67.21,16.17h2.88V3.4H67.21ZM59.72,13.7V3.4H56.84V16.17h8.53V13.7Zm-5,2.47V13.76H48.56V10.68h5.1V8.32h-5.1V5.82H54.3V3.4H45.68V16.17ZM36.39,13.73A7.38,7.38,0,0,1,35,13.17l-.81,2.28a6.2,6.2,0,0,0,.63.31,7.87,7.87,0,0,0,.91.32,10,10,0,0,0,1.2.25,11.79,11.79,0,0,0,1.53.1,6.05,6.05,0,0,0,3.78-1,3.34,3.34,0,0,0,1.25-2.77,4.55,4.55,0,0,0-.24-1.57A3,3,0,0,0,42.5,10a4.53,4.53,0,0,0-1.22-.84c-.49-.24-1.07-.48-1.73-.73-.32-.11-.61-.21-.88-.32a4.16,4.16,0,0,1-.7-.35,1.64,1.64,0,0,1-.47-.43,1,1,0,0,1-.16-.59,1,1,0,0,1,.45-.88,2.88,2.88,0,0,1,1.48-.28,5.21,5.21,0,0,1,1.58.21A7.09,7.09,0,0,1,42,6.26L42.86,4a7.93,7.93,0,0,0-3.77-.88,6.59,6.59,0,0,0-2,.27,4.27,4.27,0,0,0-1.47.76,3.39,3.39,0,0,0-.94,1.21,3.71,3.71,0,0,0-.33,1.59,3.26,3.26,0,0,0,.31,1.5,3.51,3.51,0,0,0,.81,1.05,4.72,4.72,0,0,0,1.13.72c.41.19.83.36,1.25.51a8.46,8.46,0,0,1,2,.89,1.24,1.24,0,0,1,.59,1,1.43,1.43,0,0,1-.1.53.94.94,0,0,1-.33.42,1.84,1.84,0,0,1-.63.28,4.64,4.64,0,0,1-1,.1,7.5,7.5,0,0,1-2-.25m-10.72,0a7.38,7.38,0,0,1-1.41-.56l-.81,2.28a6.2,6.2,0,0,0,.63.31,7.87,7.87,0,0,0,.91.32,10,10,0,0,0,1.2.25,11.79,11.79,0,0,0,1.53.1,6.05,6.05,0,0,0,3.78-1,3.34,3.34,0,0,0,1.25-2.77,4.55,4.55,0,0,0-.24-1.57A3,3,0,0,0,31.78,10a4.53,4.53,0,0,0-1.22-.84c-.49-.24-1.07-.48-1.73-.73-.32-.11-.61-.21-.88-.32a4.16,4.16,0,0,1-.7-.35,1.64,1.64,0,0,1-.47-.43,1,1,0,0,1-.16-.59,1,1,0,0,1,.45-.88,2.88,2.88,0,0,1,1.48-.28,5.21,5.21,0,0,1,1.58.21,7.09,7.09,0,0,1,1.18.49L32.14,4a7.93,7.93,0,0,0-3.77-.88,6.59,6.59,0,0,0-2,.27,4.27,4.27,0,0,0-1.47.76A3.39,3.39,0,0,0,24,5.35a3.71,3.71,0,0,0-.33,1.59A3.26,3.26,0,0,0,24,8.44a3.51,3.51,0,0,0,.81,1.05,4.72,4.72,0,0,0,1.13.72c.41.19.83.36,1.25.51a8.46,8.46,0,0,1,2,.89,1.24,1.24,0,0,1,.59,1,1.43,1.43,0,0,1-.1.53.94.94,0,0,1-.33.42,1.84,1.84,0,0,1-.63.28,4.64,4.64,0,0,1-1,.1,7.5,7.5,0,0,1-2-.25M16,7.05c.13.31.27.68.44,1.1S16.8,9,17,9.54l.57,1.58H13.9c.2-.55.39-1.08.59-1.58L15,8.16l.42-1.11c.12-.32.22-.57.28-.75q.12.27.3.75m6.23,9.12c-.48-1.38-.94-2.65-1.37-3.81s-.85-2.27-1.27-3.3-.82-2-1.23-2.94-.82-1.83-1.24-2.72H14.42c-.43.89-.85,1.79-1.25,2.72S12.37,8,12,9.06s-.83,2.13-1.26,3.3-.89,2.43-1.37,3.81h3c.14-.44.3-.9.46-1.36l.48-1.4h5c.16.46.32.92.49,1.39s.31.93.45,1.37ZM5.16,5.79A2.41,2.41,0,0,1,6,6.08a1.53,1.53,0,0,1,.56.57,1.88,1.88,0,0,1,.19.88A1.54,1.54,0,0,1,6,9a4.86,4.86,0,0,1-2.24.41H2.87V5.76l.53,0H4a6.8,6.8,0,0,1,1.14.08M2,3.33a17.11,17.11,0,0,0-2,.26V16.17H2.87V11.9h.91a8,8,0,0,0,4.42-1A3.68,3.68,0,0,0,9.74,7.55,3.66,3.66,0,0,0,8.22,4.26a8,8,0,0,0-4.39-1c-.53,0-1.14,0-1.84.07" transform="translate(0 -2.61)"></path></g></svg> 